<svg xmlns="http://www.w3.org/2000/svg" width="15.437" height="15.44" viewBox="0 0 15.437 15.44">
  <metadata><?xpacket begin="﻿" id="W5M0MpCehiHzreSzNTczkc9d"?>
<x:xmpmeta xmlns:x="adobe:ns:meta/" x:xmptk="Adobe XMP Core 5.6-c142 79.160924, 2017/07/13-01:06:39        ">
   <rdf:RDF xmlns:rdf="http://www.w3.org/1999/02/22-rdf-syntax-ns#">
      <rdf:Description rdf:about=""/>
   </rdf:RDF>
</x:xmpmeta>
                                                                                                    
                                                                                                    
                                                                                                    
                                                                                                    
                                                                                                    
                                                                                                    
                                                                                                    
                                                                                                    
                                                                                                    
                                                                                                    
                                                                                                    
                                                                                                    
                                                                                                    
                                                                                                    
                                                                                                    
                                                                                                    
                                                                                                    
                                                                                                    
                                                                                                    
                                                                                                    
                           
<?xpacket end="w"?></metadata>
<defs>
    <style>
      .cls-1 {
        fill: #ffad00;
        fill-rule: evenodd;
      }
    </style>
  </defs>
  <path id="иконка" class="cls-1" d="M437.484,6839.97a0.317,0.317,0,0,0-.232-0.09h-0.643a0.313,0.313,0,0,0-.231.09,0.318,0.318,0,0,0-.091.23v3.54h-2.251a0.313,0.313,0,0,0-.231.09,0.318,0.318,0,0,0-.091.23v0.64a0.3,0.3,0,0,0,.091.23,0.321,0.321,0,0,0,.231.1h3.216a0.325,0.325,0,0,0,.232-0.1,0.3,0.3,0,0,0,.09-0.23v-4.5A0.317,0.317,0,0,0,437.484,6839.97Zm1.547,8.5a5.456,5.456,0,0,1-5.487,0,5.444,5.444,0,0,1-1.991-1.99,5.506,5.506,0,0,1,0-5.49,5.521,5.521,0,0,1,1.991-1.99,5.52,5.52,0,0,1,5.487,0,5.521,5.521,0,0,1,1.991,1.99,5.506,5.506,0,0,1,0,5.49A5.444,5.444,0,0,1,439.031,6848.47Zm1.131-11.42a7.8,7.8,0,0,0-7.749,0,7.7,7.7,0,0,0-2.809,2.81,7.72,7.72,0,1,0,13.367,0A7.7,7.7,0,0,0,440.162,6837.05Z" transform="translate(-428.563 -6836.03)"/>
</svg>
